<svg width="158" height="37" viewBox="0 0 158 37" fill="none" xmlns="http://www.w3.org/2000/svg">
<path d="M4.10395 3.3H0.653945V0.300002H10.8539V3.3H7.40395V21.3H4.10395V3.3ZM12.4517 0.300002H15.7517V8.85H19.2917V0.300002H22.5917V21.3H19.2917V11.85H15.7517V21.3H12.4517V0.300002ZM25.0493 0.300002H34.0493V3.3H28.3493V8.85H32.8793V11.85H28.3493V18.3H34.0493V21.3H25.0493V0.300002ZM40.7525 0.300002H49.7525V3.3H44.0525V8.85H48.5825V11.85H44.0525V18.3H49.7525V21.3H40.7525V0.300002ZM51.6509 0.300002H55.7909L59.0009 12.87H59.0609V0.300002H62.0009V21.3H58.6109L54.6509 5.97H54.5909V21.3H51.6509V0.300002ZM69.1336 21.6C67.5336 21.6 66.3136 21.15 65.4736 20.25C64.6336 19.33 64.2136 18.02 64.2136 16.32V5.28C64.2136 3.58 64.6336 2.28 65.4736 1.38C66.3136 0.460002 67.5336 1.90735e-06 69.1336 1.90735e-06C70.7336 1.90735e-06 71.9536 0.460002 72.7936 1.38C73.6336 2.28 74.0536 3.58 74.0536 5.28V7.08H70.9336V5.07C70.9336 3.69 70.3636 3 69.2236 3C68.0836 3 67.5136 3.69 67.5136 5.07V16.56C67.5136 17.92 68.0836 18.6 69.2236 18.6C70.3636 18.6 70.9336 17.92 70.9336 16.56V12.45H69.2836V9.45H74.0536V16.32C74.0536 18.02 73.6336 19.33 72.7936 20.25C71.9536 21.15 70.7336 21.6 69.1336 21.6ZM76.1724 0.300002H79.4724V21.3H76.1724V0.300002ZM81.9439 0.300002H86.0839L89.2939 12.87H89.3539V0.300002H92.2939V21.3H88.9039L84.9439 5.97H84.8839V21.3H81.9439V0.300002ZM94.7466 0.300002H103.747V3.3H98.0466V8.85H102.577V11.85H98.0466V18.3H103.747V21.3H94.7466V0.300002ZM105.645 0.300002H114.645V3.3H108.945V8.85H113.475V11.85H108.945V18.3H114.645V21.3H105.645V0.300002ZM116.543 0.300002H121.433C123.133 0.300002 124.373 0.700002 125.153 1.5C125.933 2.28 126.323 3.49 126.323 5.13V6.42C126.323 8.6 125.603 9.98 124.163 10.56V10.62C124.963 10.86 125.523 11.35 125.843 12.09C126.183 12.83 126.353 13.82 126.353 15.06V18.75C126.353 19.35 126.373 19.84 126.413 20.22C126.453 20.58 126.553 20.94 126.713 21.3H123.353C123.233 20.96 123.153 20.64 123.113 20.34C123.073 20.04 123.053 19.5 123.053 18.72V14.88C123.053 13.92 122.893 13.25 122.573 12.87C122.273 12.49 121.743 12.3 120.983 12.3H119.843V21.3H116.543V0.300002ZM121.043 9.3C121.703 9.3 122.193 9.13 122.513 8.79C122.853 8.45 123.023 7.88 123.023 7.08V5.46C123.023 4.7 122.883 4.15 122.603 3.81C122.343 3.47 121.923 3.3 121.343 3.3H119.843V9.3H121.043ZM128.643 0.300002H131.943V21.3H128.643V0.300002ZM134.415 0.300002H138.555L141.765 12.87H141.825V0.300002H144.765V21.3H141.375L137.415 5.97H137.355V21.3H134.415V0.300002ZM151.897 21.6C150.297 21.6 149.077 21.15 148.237 20.25C147.397 19.33 146.977 18.02 146.977 16.32V5.28C146.977 3.58 147.397 2.28 148.237 1.38C149.077 0.460002 150.297 1.90735e-06 151.897 1.90735e-06C153.497 1.90735e-06 154.717 0.460002 155.557 1.38C156.397 2.28 156.817 3.58 156.817 5.28V7.08H153.697V5.07C153.697 3.69 153.127 3 151.987 3C150.847 3 150.277 3.69 150.277 5.07V16.56C150.277 17.92 150.847 18.6 151.987 18.6C153.127 18.6 153.697 17.92 153.697 16.56V12.45H152.047V9.45H156.817V16.32C156.817 18.02 156.397 19.33 155.557 20.25C154.717 21.15 153.497 21.6 151.897 21.6Z" fill="white"/>
<mask id="path-2-outside-1_8_73" maskUnits="userSpaceOnUse" x="18" y="18.3" width="12" height="12" fill="black">
<rect fill="white" x="18" y="18.3" width="12" height="12"/>
<path d="M19.9379 26.328C19.7046 26.328 19.5226 26.2207 19.3919 26.006C19.2613 25.782 19.1959 25.5673 19.1959 25.362C19.1959 24.802 19.6019 24.018 20.4139 23.01C21.2353 21.9927 21.8979 21.484 22.4019 21.484C22.8779 21.484 23.1159 21.736 23.1159 22.24C23.1159 22.3147 23.1066 22.394 23.0879 22.478C23.0786 22.562 23.0646 22.6507 23.0459 22.744C23.0646 22.772 23.1113 22.786 23.1859 22.786C23.4379 22.786 23.7366 22.6973 24.0819 22.52C24.0726 22.6787 23.7039 22.9073 22.9759 23.206C23.0786 23.514 22.7706 24.102 22.0519 24.97C21.3146 25.8753 20.6846 26.328 20.1619 26.328H19.9379ZM20.1899 25.908C20.5913 25.908 21.1046 25.5393 21.7299 24.802C22.3366 24.0833 22.6399 23.5653 22.6399 23.248C22.4906 23.164 22.3039 22.9493 22.0799 22.604C21.7626 22.604 21.3053 22.9867 20.7079 23.752C20.1199 24.4987 19.8353 25.0727 19.8539 25.474C19.8633 25.7633 19.9753 25.908 20.1899 25.908ZM20.8934 29.17C20.6134 29.17 20.3754 29.0533 20.1794 28.82C19.9834 28.5867 19.8808 28.3347 19.8714 28.064C19.8994 27.952 19.9414 27.896 19.9974 27.896C20.0534 27.896 20.0861 27.966 20.0954 28.106C20.1048 28.2553 20.1794 28.4 20.3194 28.54C20.4594 28.68 20.5994 28.75 20.7394 28.75C21.5328 28.75 22.2561 28.26 22.9094 27.28C23.0868 27.0187 23.3061 26.6407 23.5674 26.146C23.8288 25.642 24.1181 25.012 24.4354 24.256L25.1914 22.436C24.2581 22.4267 23.7914 22.3147 23.7914 22.1C23.7914 21.9973 23.8381 21.918 23.9314 21.862C24.0248 21.7967 24.0994 21.764 24.1554 21.764C24.1648 21.764 24.2814 21.7687 24.5054 21.778C24.7294 21.778 25.0514 21.7827 25.4714 21.792C26.3861 19.7573 27.2261 18.74 27.9914 18.74C28.2901 18.74 28.5841 18.88 28.8734 19.16C28.9481 19.2347 28.9854 19.3327 28.9854 19.454C28.9854 19.7433 28.9014 19.888 28.7334 19.888C28.6868 19.888 28.6401 19.8507 28.5934 19.776C28.5561 19.7107 28.4954 19.6593 28.4114 19.622C28.3274 19.5753 28.2481 19.552 28.1734 19.552C27.8934 19.552 27.6461 19.6593 27.4314 19.874C27.2261 20.0793 27.0301 20.35 26.8434 20.686C26.6661 21.022 26.4748 21.3907 26.2694 21.792H26.4374C27.4548 21.792 28.1314 21.778 28.4674 21.75C28.5048 21.7593 28.5234 21.778 28.5234 21.806C28.5234 21.8807 28.1921 21.9833 27.5294 22.114C27.2681 22.1513 27.0114 22.1933 26.7594 22.24C26.5074 22.2867 26.2508 22.3333 25.9894 22.38C25.8681 22.6413 25.7188 22.954 25.5414 23.318C25.3641 23.6727 25.1634 24.0693 24.9394 24.508C24.5008 25.3293 24.1414 25.9827 23.8614 26.468C23.5814 26.9533 23.3854 27.2753 23.2734 27.434C22.4614 28.5913 21.6681 29.17 20.8934 29.17Z"/>
</mask>
<path d="M19.9379 26.328C19.7046 26.328 19.5226 26.2207 19.3919 26.006C19.2613 25.782 19.1959 25.5673 19.1959 25.362C19.1959 24.802 19.6019 24.018 20.4139 23.01C21.2353 21.9927 21.8979 21.484 22.4019 21.484C22.8779 21.484 23.1159 21.736 23.1159 22.24C23.1159 22.3147 23.1066 22.394 23.0879 22.478C23.0786 22.562 23.0646 22.6507 23.0459 22.744C23.0646 22.772 23.1113 22.786 23.1859 22.786C23.4379 22.786 23.7366 22.6973 24.0819 22.52C24.0726 22.6787 23.7039 22.9073 22.9759 23.206C23.0786 23.514 22.7706 24.102 22.0519 24.97C21.3146 25.8753 20.6846 26.328 20.1619 26.328H19.9379ZM20.1899 25.908C20.5913 25.908 21.1046 25.5393 21.7299 24.802C22.3366 24.0833 22.6399 23.5653 22.6399 23.248C22.4906 23.164 22.3039 22.9493 22.0799 22.604C21.7626 22.604 21.3053 22.9867 20.7079 23.752C20.1199 24.4987 19.8353 25.0727 19.8539 25.474C19.8633 25.7633 19.9753 25.908 20.1899 25.908ZM20.8934 29.17C20.6134 29.17 20.3754 29.0533 20.1794 28.82C19.9834 28.5867 19.8808 28.3347 19.8714 28.064C19.8994 27.952 19.9414 27.896 19.9974 27.896C20.0534 27.896 20.0861 27.966 20.0954 28.106C20.1048 28.2553 20.1794 28.4 20.3194 28.54C20.4594 28.68 20.5994 28.75 20.7394 28.75C21.5328 28.75 22.2561 28.26 22.9094 27.28C23.0868 27.0187 23.3061 26.6407 23.5674 26.146C23.8288 25.642 24.1181 25.012 24.4354 24.256L25.1914 22.436C24.2581 22.4267 23.7914 22.3147 23.7914 22.1C23.7914 21.9973 23.8381 21.918 23.9314 21.862C24.0248 21.7967 24.0994 21.764 24.1554 21.764C24.1648 21.764 24.2814 21.7687 24.5054 21.778C24.7294 21.778 25.0514 21.7827 25.4714 21.792C26.3861 19.7573 27.2261 18.74 27.9914 18.74C28.2901 18.74 28.5841 18.88 28.8734 19.16C28.9481 19.2347 28.9854 19.3327 28.9854 19.454C28.9854 19.7433 28.9014 19.888 28.7334 19.888C28.6868 19.888 28.6401 19.8507 28.5934 19.776C28.5561 19.7107 28.4954 19.6593 28.4114 19.622C28.3274 19.5753 28.2481 19.552 28.1734 19.552C27.8934 19.552 27.6461 19.6593 27.4314 19.874C27.2261 20.0793 27.0301 20.35 26.8434 20.686C26.6661 21.022 26.4748 21.3907 26.2694 21.792H26.4374C27.4548 21.792 28.1314 21.778 28.4674 21.75C28.5048 21.7593 28.5234 21.778 28.5234 21.806C28.5234 21.8807 28.1921 21.9833 27.5294 22.114C27.2681 22.1513 27.0114 22.1933 26.7594 22.24C26.5074 22.2867 26.2508 22.3333 25.9894 22.38C25.8681 22.6413 25.7188 22.954 25.5414 23.318C25.3641 23.6727 25.1634 24.0693 24.9394 24.508C24.5008 25.3293 24.1414 25.9827 23.8614 26.468C23.5814 26.9533 23.3854 27.2753 23.2734 27.434C22.4614 28.5913 21.6681 29.17 20.8934 29.17Z" fill="#2A2722"/>
<path d="M19.3919 26.006L19.2192 26.1068L19.2211 26.11L19.3919 26.006ZM20.4139 23.01L20.2583 22.8844L20.2582 22.8845L20.4139 23.01ZM23.0879 22.478L22.8927 22.4346L22.8904 22.4452L22.8892 22.4559L23.0879 22.478ZM23.0459 22.744L22.8498 22.7048L22.8336 22.786L22.8795 22.8549L23.0459 22.744ZM24.0819 22.52L24.2816 22.5317L24.3022 22.1821L23.9906 22.3421L24.0819 22.52ZM22.9759 23.206L22.9 23.021L22.7271 23.0919L22.7862 23.2692L22.9759 23.206ZM22.0519 24.97L21.8979 24.8425L21.8969 24.8437L22.0519 24.97ZM21.7299 24.802L21.8825 24.9314L21.8828 24.931L21.7299 24.802ZM22.6399 23.248H22.8399V23.131L22.738 23.0737L22.6399 23.248ZM22.0799 22.604L22.2477 22.4952L22.1886 22.404H22.0799V22.604ZM20.7079 23.752L20.8651 23.8757L20.8656 23.8751L20.7079 23.752ZM19.8539 25.474L20.0539 25.4676L20.0537 25.4647L19.8539 25.474ZM19.9379 26.328V26.128C19.7807 26.128 19.6605 26.0626 19.5628 25.902L19.3919 26.006L19.2211 26.11C19.3847 26.3787 19.6285 26.528 19.9379 26.528V26.328ZM19.3919 26.006L19.5647 25.9052C19.4472 25.7039 19.3959 25.5238 19.3959 25.362H19.1959H18.9959C18.9959 25.6109 19.0753 25.8601 19.2192 26.1068L19.3919 26.006ZM19.1959 25.362H19.3959C19.3959 25.1273 19.4821 24.8243 19.678 24.446C19.8728 24.0699 20.1686 23.6334 20.5697 23.1355L20.4139 23.01L20.2582 22.8845C19.8473 23.3946 19.5341 23.8541 19.3228 24.262C19.1128 24.6677 18.9959 25.0367 18.9959 25.362H19.1959ZM20.4139 23.01L20.5696 23.1356C20.9752 22.6332 21.3349 22.265 21.6487 22.0242C21.9661 21.7805 22.2146 21.684 22.4019 21.684V21.484V21.284C22.0852 21.284 21.7504 21.4418 21.4052 21.7069C21.0563 21.9746 20.674 22.3695 20.2583 22.8844L20.4139 23.01ZM22.4019 21.484V21.684C22.6061 21.684 22.7232 21.7375 22.792 21.8103C22.8629 21.8853 22.9159 22.0161 22.9159 22.24H23.1159H23.3159C23.3159 21.9599 23.25 21.7127 23.0828 21.5357C22.9136 21.3565 22.6738 21.284 22.4019 21.284V21.484ZM23.1159 22.24H22.9159C22.9159 22.2981 22.9087 22.3628 22.8927 22.4346L23.0879 22.478L23.2832 22.5214C23.3045 22.4253 23.3159 22.3313 23.3159 22.24H23.1159ZM23.0879 22.478L22.8892 22.4559C22.8805 22.5335 22.8675 22.6164 22.8498 22.7048L23.0459 22.744L23.2421 22.7832C23.2617 22.6849 23.2767 22.5905 23.2867 22.5001L23.0879 22.478ZM23.0459 22.744L22.8795 22.8549C22.9241 22.9218 22.989 22.9525 23.0375 22.9671C23.0866 22.9818 23.1383 22.986 23.1859 22.986V22.786V22.586C23.1733 22.586 23.1642 22.5854 23.1581 22.5847C23.1519 22.584 23.1504 22.5833 23.1524 22.5839C23.1542 22.5845 23.1865 22.5942 23.2123 22.6331L23.0459 22.744ZM23.1859 22.786V22.986C23.4823 22.986 23.8136 22.8826 24.1733 22.6979L24.0819 22.52L23.9906 22.3421C23.6596 22.512 23.3936 22.586 23.1859 22.586V22.786ZM24.0819 22.52L23.8823 22.5083C23.8842 22.476 23.8997 22.4763 23.8644 22.5124C23.8332 22.5445 23.7786 22.5874 23.693 22.6405C23.5228 22.7461 23.2606 22.873 22.9 23.021L22.9759 23.206L23.0518 23.391C23.4193 23.2403 23.7054 23.1035 23.9039 22.9805C24.0026 22.9192 24.0875 22.8566 24.1507 22.7918C24.2099 22.7312 24.275 22.6434 24.2816 22.5317L24.0819 22.52ZM22.9759 23.206L22.7862 23.2692C22.7964 23.2999 22.8017 23.3545 22.781 23.4448C22.7604 23.5345 22.717 23.6473 22.6448 23.7852C22.5002 24.0612 22.2536 24.4129 21.8979 24.8425L22.0519 24.97L22.206 25.0976C22.569 24.6591 22.8357 24.2828 22.9991 23.9708C23.0809 23.8147 23.1401 23.6685 23.1709 23.5342C23.2015 23.4005 23.2068 23.2662 23.1657 23.1428L22.9759 23.206ZM22.0519 24.97L21.8969 24.8437C21.5343 25.2888 21.2051 25.6138 20.9097 25.8261C20.6131 26.0392 20.3656 26.128 20.1619 26.128V26.328V26.528C20.481 26.528 20.8098 26.3905 21.1431 26.1509C21.4777 25.9105 21.8322 25.5565 22.207 25.0963L22.0519 24.97ZM20.1619 26.328V26.128H19.9379V26.328V26.528H20.1619V26.328ZM20.1899 25.908V26.108C20.4503 26.108 20.7201 25.9897 20.9926 25.794C21.2676 25.5965 21.5642 25.3067 21.8825 24.9314L21.7299 24.802L21.5774 24.6726C21.2704 25.0347 20.9977 25.2979 20.7593 25.4691C20.5185 25.642 20.3309 25.708 20.1899 25.708V25.908ZM21.7299 24.802L21.8828 24.931C22.1898 24.5673 22.4253 24.2483 22.585 23.9756C22.7412 23.7088 22.8399 23.4617 22.8399 23.248H22.6399H22.4399C22.4399 23.3517 22.387 23.5222 22.2399 23.7734C22.0962 24.0187 21.8767 24.3181 21.5771 24.673L21.7299 24.802ZM22.6399 23.248L22.738 23.0737C22.6921 23.0479 22.6257 22.9927 22.5389 22.8928C22.4537 22.7948 22.3567 22.6631 22.2477 22.4952L22.0799 22.604L21.9121 22.7128C22.0272 22.8902 22.1355 23.0385 22.237 23.1552C22.3368 23.27 22.4384 23.3641 22.5419 23.4223L22.6399 23.248ZM22.0799 22.604V22.404C21.8478 22.404 21.6076 22.5393 21.3706 22.7376C21.1265 22.9418 20.8529 23.2412 20.5503 23.6289L20.7079 23.752L20.8656 23.8751C21.1603 23.4975 21.414 23.2228 21.6273 23.0444C21.8476 22.86 21.9947 22.804 22.0799 22.804V22.604ZM20.7079 23.752L20.5508 23.6283C20.252 24.0078 20.0249 24.3499 19.8743 24.6536C19.7249 24.9548 19.6426 25.2343 19.6542 25.4833L19.8539 25.474L20.0537 25.4647C20.0466 25.3124 20.0973 25.1042 20.2326 24.8314C20.3666 24.5611 20.5759 24.2429 20.8651 23.8757L20.7079 23.752ZM19.8539 25.474L19.654 25.4805C19.6593 25.6445 19.6939 25.802 19.7868 25.9219C19.8875 26.052 20.0328 26.108 20.1899 26.108V25.908V25.708C20.1324 25.708 20.1144 25.6917 20.1031 25.6771C20.084 25.6524 20.0579 25.5928 20.0538 25.4676L19.8539 25.474ZM20.1794 28.82L20.0263 28.9486V28.9486L20.1794 28.82ZM19.8714 28.064L19.6774 28.0155L19.6706 28.0428L19.6716 28.0709L19.8714 28.064ZM20.0954 28.106L20.295 28.0935L20.295 28.0927L20.0954 28.106ZM22.9094 27.28L22.7439 27.1677L22.743 27.1691L22.9094 27.28ZM23.5674 26.146L23.7443 26.2394L23.745 26.2381L23.5674 26.146ZM24.4354 24.256L24.6199 24.3334L24.6201 24.3327L24.4354 24.256ZM25.1914 22.436L25.3761 22.5127L25.4898 22.239L25.1934 22.236L25.1914 22.436ZM23.9314 21.862L24.0346 22.0339L24.0461 22.0258L23.9314 21.862ZM24.5054 21.778L24.4971 21.978H24.5054V21.778ZM25.4714 21.792L25.467 21.992L25.5995 21.9949L25.6539 21.874L25.4714 21.792ZM28.8734 19.16L29.0149 19.0186L29.0125 19.0163L28.8734 19.16ZM28.5934 19.776L28.4197 19.8753L28.4238 19.882L28.5934 19.776ZM28.4114 19.622L28.3143 19.7968L28.3221 19.8012L28.3302 19.8048L28.4114 19.622ZM26.8434 20.686L26.6686 20.5889L26.6666 20.5927L26.8434 20.686ZM26.2694 21.792L26.0914 21.7009L25.9425 21.992H26.2694V21.792ZM28.4674 21.75L28.5159 21.556L28.4838 21.5479L28.4508 21.5507L28.4674 21.75ZM27.5294 22.114L27.5578 22.3123L27.5681 22.3102L27.5294 22.114ZM26.7594 22.24L26.723 22.0433V22.0433L26.7594 22.24ZM25.9894 22.38L25.9543 22.1831L25.8519 22.2014L25.808 22.2958L25.9894 22.38ZM25.5414 23.318L25.7203 23.4075L25.7212 23.4056L25.5414 23.318ZM24.9394 24.508L25.1159 24.6022L25.1176 24.599L24.9394 24.508ZM23.8614 26.468L24.0347 26.5679V26.5679L23.8614 26.468ZM23.2734 27.434L23.11 27.3187L23.1097 27.3191L23.2734 27.434ZM20.8934 29.17V28.97C20.6782 28.97 20.4944 28.884 20.3326 28.6914L20.1794 28.82L20.0263 28.9486C20.2565 29.2227 20.5487 29.37 20.8934 29.37V29.17ZM20.1794 28.82L20.3326 28.6914C20.1615 28.4877 20.0789 28.2776 20.0713 28.0571L19.8714 28.064L19.6716 28.0709C19.6826 28.3918 19.8053 28.6856 20.0263 28.9486L20.1794 28.82ZM19.8714 28.064L20.0655 28.1125C20.0707 28.0918 20.0756 28.0771 20.0797 28.0674C20.0838 28.0574 20.0859 28.0554 20.0839 28.058C20.0819 28.0608 20.0737 28.0708 20.0573 28.0802C20.0396 28.0903 20.0185 28.096 19.9974 28.096V27.896V27.696C19.8909 27.696 19.8122 27.7536 19.7639 27.818C19.7199 27.8768 19.6942 27.9483 19.6774 28.0155L19.8714 28.064ZM19.9974 27.896V28.096C19.966 28.096 19.935 28.085 19.9111 28.0661C19.8904 28.0498 19.8831 28.034 19.8827 28.0331C19.8821 28.0318 19.8847 28.0372 19.8879 28.0534C19.8911 28.0689 19.894 28.0905 19.8959 28.1193L20.0954 28.106L20.295 28.0927C20.2898 28.0148 20.2773 27.9327 20.2452 27.8639C20.2106 27.7898 20.1325 27.696 19.9974 27.696V27.896ZM20.0954 28.106L19.8958 28.1185C19.9091 28.3304 20.0149 28.5183 20.178 28.6814L20.3194 28.54L20.4609 28.3986C20.344 28.2817 20.3005 28.1803 20.295 28.0935L20.0954 28.106ZM20.3194 28.54L20.178 28.6814C20.3398 28.8432 20.5277 28.95 20.7394 28.95V28.75V28.55C20.6712 28.55 20.5791 28.5168 20.4609 28.3986L20.3194 28.54ZM20.7394 28.75V28.95C21.628 28.95 22.4045 28.3979 23.0758 27.3909L22.9094 27.28L22.743 27.1691C22.1077 28.1221 21.4376 28.55 20.7394 28.55V28.75ZM22.9094 27.28L23.0749 27.3923C23.2584 27.122 23.4817 26.7365 23.7443 26.2394L23.5674 26.146L23.3906 26.0526C23.1305 26.5449 22.9152 26.9154 22.7439 27.1677L22.9094 27.28ZM23.5674 26.146L23.745 26.2381C24.0096 25.7277 24.3013 25.0924 24.6199 24.3334L24.4354 24.256L24.251 24.1786C23.935 24.9316 23.6479 25.5563 23.3899 26.0539L23.5674 26.146ZM24.4354 24.256L24.6201 24.3327L25.3761 22.5127L25.1914 22.436L25.0067 22.3593L24.2507 24.1793L24.4354 24.256ZM25.1914 22.436L25.1934 22.236C24.7305 22.2314 24.3989 22.2011 24.1881 22.1505C24.0814 22.1249 24.022 22.0978 23.9936 22.0779C23.9695 22.061 23.9914 22.068 23.9914 22.1H23.7914H23.5914C23.5914 22.2393 23.6717 22.3408 23.7642 22.4056C23.8525 22.4674 23.9681 22.5091 24.0948 22.5395C24.3507 22.6009 24.719 22.6313 25.1894 22.636L25.1914 22.436ZM23.7914 22.1H23.9914C23.9914 22.0726 23.9968 22.056 24.0343 22.0335L23.9314 21.862L23.8285 21.6905C23.6794 21.78 23.5914 21.9221 23.5914 22.1H23.7914ZM23.9314 21.862L24.0461 22.0258C24.0859 21.998 24.1161 21.9811 24.1376 21.9717C24.1602 21.9618 24.1646 21.964 24.1554 21.964V21.764V21.564C24.0336 21.564 23.9151 21.6293 23.8167 21.6982L23.9314 21.862ZM24.1554 21.764V21.964C24.1548 21.964 24.1798 21.9649 24.2419 21.9673C24.3001 21.9697 24.3851 21.9732 24.4971 21.9778L24.5054 21.778L24.5138 21.5782C24.2944 21.569 24.1703 21.564 24.1554 21.564V21.764ZM24.5054 21.778V21.978C24.7272 21.978 25.0474 21.9826 25.467 21.992L25.4714 21.792L25.4759 21.5921C25.0554 21.5827 24.7317 21.578 24.5054 21.578V21.778ZM25.4714 21.792L25.6539 21.874C26.1082 20.8634 26.5382 20.119 26.9417 19.6303C27.3501 19.1357 27.7002 18.94 27.9914 18.94V18.74V18.54C27.5173 18.54 27.0648 18.853 26.6332 19.3757C26.1967 19.9044 25.7494 20.6859 25.289 21.71L25.4714 21.792ZM27.9914 18.74V18.94C28.2222 18.94 28.469 19.047 28.7344 19.3037L28.8734 19.16L29.0125 19.0163C28.6992 18.7131 28.358 18.54 27.9914 18.54V18.74ZM28.8734 19.16L28.732 19.3014C28.7635 19.3329 28.7854 19.3771 28.7854 19.454H28.9854H29.1854C29.1854 19.2882 29.1327 19.1364 29.0149 19.0186L28.8734 19.16ZM28.9854 19.454H28.7854C28.7854 19.5859 28.7651 19.6521 28.7495 19.6791C28.7434 19.6895 28.7408 19.6893 28.7441 19.6874C28.7474 19.6856 28.746 19.688 28.7334 19.688V19.888V20.088C28.8883 20.088 29.0174 20.0142 29.0954 19.8799C29.1637 19.7622 29.1854 19.6115 29.1854 19.454H28.9854ZM28.7334 19.888V19.688C28.7491 19.688 28.7626 19.6913 28.7727 19.6953C28.7824 19.6992 28.7875 19.7031 28.7884 19.7038C28.7892 19.7045 28.787 19.7028 28.7821 19.697C28.7773 19.6912 28.7708 19.6825 28.763 19.67L28.5934 19.776L28.4238 19.882C28.4758 19.9651 28.5744 20.088 28.7334 20.088V19.888ZM28.5934 19.776L28.7671 19.6768C28.7043 19.5669 28.6068 19.49 28.4927 19.4392L28.4114 19.622L28.3302 19.8048C28.3841 19.8287 28.4079 19.8544 28.4198 19.8752L28.5934 19.776ZM28.4114 19.622L28.5086 19.4472C28.4032 19.3886 28.2905 19.352 28.1734 19.352V19.552V19.752C28.2057 19.752 28.2517 19.7621 28.3143 19.7968L28.4114 19.622ZM28.1734 19.552V19.352C27.8357 19.352 27.5387 19.4839 27.29 19.7326L27.4314 19.874L27.5729 20.0154C27.7535 19.8348 27.9512 19.752 28.1734 19.752V19.552ZM27.4314 19.874L27.29 19.7326C27.0681 19.9545 26.8616 20.2415 26.6686 20.5889L26.8434 20.686L27.0183 20.7831C27.1986 20.4585 27.3841 20.2042 27.5729 20.0154L27.4314 19.874ZM26.8434 20.686L26.6666 20.5927C26.4888 20.9295 26.297 21.299 26.0914 21.7009L26.2694 21.792L26.4475 21.8831C26.6525 21.4824 26.8434 21.1145 27.0203 20.7794L26.8434 20.686ZM26.2694 21.792V21.992H26.4374V21.792V21.592H26.2694V21.792ZM26.4374 21.792V21.992C27.4533 21.992 28.1384 21.9781 28.484 21.9493L28.4674 21.75L28.4508 21.5507C28.1245 21.5779 27.4562 21.592 26.4374 21.592V21.792ZM28.4674 21.75L28.4189 21.944C28.4175 21.9437 28.3935 21.9379 28.368 21.9124C28.3374 21.8818 28.3234 21.8415 28.3234 21.806H28.5234H28.7234C28.7234 21.7425 28.7002 21.6789 28.6509 21.6296C28.6068 21.5855 28.5547 21.5657 28.5159 21.556L28.4674 21.75ZM28.5234 21.806H28.3234C28.3234 21.7384 28.3605 21.6998 28.3675 21.6929C28.3765 21.684 28.3798 21.6841 28.3669 21.6909C28.3425 21.704 28.2948 21.7235 28.2157 21.748C28.0605 21.7961 27.8203 21.8528 27.4907 21.9178L27.5294 22.114L27.5681 22.3102C27.9012 22.2445 28.1581 22.1846 28.3341 22.13C28.4208 22.1032 28.4973 22.0748 28.5557 22.0436C28.5843 22.0283 28.6186 22.0071 28.6483 21.9777C28.6761 21.9504 28.7234 21.8923 28.7234 21.806H28.5234ZM27.5294 22.114L27.5012 21.916C27.2372 21.9537 26.9778 21.9962 26.723 22.0433L26.7594 22.24L26.7959 22.4367C27.0451 22.3905 27.299 22.3489 27.5577 22.312L27.5294 22.114ZM26.7594 22.24L26.723 22.0433C26.4715 22.0899 26.2152 22.1365 25.9543 22.1831L25.9894 22.38L26.0246 22.5769C26.2863 22.5301 26.5434 22.4834 26.7959 22.4367L26.7594 22.24ZM25.9894 22.38L25.808 22.2958C25.6874 22.5556 25.5386 22.8671 25.3616 23.2304L25.5414 23.318L25.7212 23.4056C25.8989 23.0409 26.0488 22.727 26.1708 22.4642L25.9894 22.38ZM25.5414 23.318L25.3626 23.2286C25.1855 23.5826 24.9851 23.9788 24.7613 24.417L24.9394 24.508L25.1176 24.599C25.3418 24.1599 25.5427 23.7627 25.7203 23.4074L25.5414 23.318ZM24.9394 24.508L24.763 24.4138C24.3248 25.2343 23.9666 25.8854 23.6882 26.3681L23.8614 26.468L24.0347 26.5679C24.3162 26.0799 24.6767 25.4244 25.1159 24.6022L24.9394 24.508ZM23.8614 26.468L23.6882 26.3681C23.4076 26.8545 23.2159 27.1686 23.11 27.3187L23.2734 27.434L23.4368 27.5493C23.5549 27.382 23.7553 27.0522 24.0347 26.5679L23.8614 26.468ZM23.2734 27.434L23.1097 27.3191C22.3055 28.4654 21.5643 28.97 20.8934 28.97V29.17V29.37C21.7719 29.37 22.6174 28.7173 23.4372 27.5489L23.2734 27.434Z" fill="white" mask="url(#path-2-outside-1_8_73)"/>
<path d="M0.957031 27.1828H4.53125V27.6164C3.91797 27.6711 3.53906 27.7688 3.39453 27.9094C3.25781 28.0461 3.18945 28.3117 3.18945 28.7063V34.7766C3.18945 35.1867 3.27734 35.4602 3.45312 35.5969C3.60938 35.7219 3.96875 35.8117 4.53125 35.8664V36.3H0.957031V35.8664C1.54297 35.8039 1.91016 35.7082 2.05859 35.5793C2.21875 35.4426 2.29883 35.175 2.29883 34.7766V28.7063C2.29883 28.2258 2.18359 27.927 1.95312 27.8098C1.77734 27.7199 1.44531 27.6555 0.957031 27.6164V27.1828ZM5.27539 27.1828H7.40234L12.9453 34.5715H12.9922V28.5598C12.9922 28.2043 12.9199 27.9699 12.7754 27.8566C12.6191 27.7355 12.2949 27.6555 11.8027 27.6164V27.1828H14.8555V27.6164C14.3125 27.6555 13.9727 27.7355 13.8359 27.8566C13.7148 27.9582 13.6543 28.1926 13.6543 28.5598V36.4465H13.1855L7.18555 28.2727H7.13867V34.923C7.13867 35.298 7.22266 35.5422 7.39062 35.6555C7.53125 35.7531 7.8418 35.8234 8.32227 35.8664V36.3H5.27539V35.8664C5.82227 35.8195 6.16016 35.7336 6.28906 35.6086C6.41406 35.4914 6.47656 35.2629 6.47656 34.923V28.5598C6.47656 28.134 6.38281 27.8723 6.19531 27.7746C6.04688 27.6926 5.74023 27.6398 5.27539 27.6164V27.1828ZM15.1367 27.1828H18.5586V27.6164C17.6836 27.6789 17.2461 27.841 17.2461 28.1027C17.2461 28.2395 17.2871 28.4016 17.3691 28.5891L19.9238 34.8996L22.1797 28.6242C22.2539 28.4172 22.291 28.2609 22.291 28.1555C22.291 27.9602 22.168 27.8234 21.9219 27.7453C21.7578 27.6906 21.4883 27.6477 21.1133 27.6164V27.1828H24.1719V27.6164C23.5234 27.7219 23.0723 28.1262 22.8184 28.8293L20.0234 36.4816H19.5781L16.3965 28.5363C16.2715 28.2199 16.1016 27.9973 15.8867 27.8684C15.6758 27.7355 15.4258 27.6516 15.1367 27.6164V27.1828ZM24.7109 27.1828H28.2852V27.6164C27.6719 27.6711 27.293 27.7688 27.1484 27.9094C27.0117 28.0461 26.9434 28.3117 26.9434 28.7063V34.7766C26.9434 35.1867 27.0312 35.4602 27.207 35.5969C27.3633 35.7219 27.7227 35.8117 28.2852 35.8664V36.3H24.7109V35.8664C25.2969 35.8039 25.6641 35.7082 25.8125 35.5793C25.9727 35.4426 26.0527 35.175 26.0527 34.7766V28.7063C26.0527 28.2258 25.9375 27.927 25.707 27.8098C25.5312 27.7199 25.1992 27.6555 24.7109 27.6164V27.1828ZM29.7148 33.0012H30.125C30.2578 33.9699 30.5508 34.6652 31.0039 35.0871C31.5664 35.6145 32.2871 35.8781 33.166 35.8781C33.873 35.8781 34.4434 35.718 34.877 35.3977C35.2988 35.0852 35.5098 34.6691 35.5098 34.1496C35.5098 33.4035 34.875 32.7727 33.6055 32.257L31.9824 31.5949C31.2441 31.2941 30.7129 30.9582 30.3887 30.5871C30.0449 30.1965 29.873 29.7199 29.873 29.1574C29.873 28.4621 30.168 27.9055 30.7578 27.4875C31.2617 27.1281 31.9102 26.9484 32.7031 26.9484C33.5977 26.9484 34.3223 27.132 34.877 27.4992C34.9746 27.5656 35.0684 27.5988 35.1582 27.5988C35.3145 27.5988 35.4121 27.4309 35.4512 27.0949H35.873V29.8313H35.4512C35.3184 29.132 35.0469 28.6008 34.6367 28.2375C34.1602 27.8117 33.5605 27.5988 32.8379 27.5988C32.2012 27.5988 31.6836 27.7473 31.2852 28.0441C30.8945 28.3371 30.6992 28.7082 30.6992 29.1574C30.6992 29.552 30.877 29.882 31.2324 30.1477C31.4863 30.3391 31.8652 30.5344 32.3691 30.7336L33.9395 31.3547C34.7637 31.6828 35.375 32.0539 35.7734 32.468C36.2227 32.9367 36.4473 33.4895 36.4473 34.1262C36.4473 34.8684 36.1641 35.4543 35.5977 35.884C35.0352 36.3137 34.252 36.5285 33.248 36.5285C32.3613 36.5285 31.5684 36.3195 30.8691 35.9016C30.7559 35.8391 30.6719 35.8078 30.6172 35.8078C30.3672 35.8078 30.2031 36.0207 30.125 36.4465H29.7148V33.0012ZM37.6719 27.1828H41.2461V27.6164C40.6328 27.6711 40.2539 27.7688 40.1094 27.9094C39.9727 28.0461 39.9043 28.3117 39.9043 28.7063V34.7766C39.9043 35.1867 39.9922 35.4602 40.168 35.5969C40.3242 35.7219 40.6836 35.8117 41.2461 35.8664V36.3H37.6719V35.8664C38.2578 35.8039 38.625 35.7082 38.7734 35.5793C38.9336 35.4426 39.0137 35.175 39.0137 34.7766V28.7063C39.0137 28.2258 38.8984 27.927 38.668 27.8098C38.4922 27.7199 38.1602 27.6555 37.6719 27.6164V27.1828ZM42.0957 27.1828H46.209C47.041 27.1828 47.6895 27.302 48.1543 27.5402C48.3926 27.6652 48.6035 27.8273 48.7871 28.0266C49.1348 28.4016 49.3086 28.8352 49.3086 29.3273C49.3086 30.5148 48.5273 31.1984 46.9648 31.3781V31.425C47.793 31.4523 48.459 31.632 48.9629 31.9641C49.623 32.3938 49.9531 33.0012 49.9531 33.7863C49.9531 34.548 49.6777 35.1418 49.127 35.5676C48.8926 35.7512 48.5859 35.9074 48.207 36.0363C47.6953 36.2121 47.1328 36.3 46.5195 36.3H42.0957V35.8664C42.6035 35.8156 42.9277 35.7297 43.0684 35.6086C43.2129 35.4797 43.2852 35.2492 43.2852 34.9172V28.5598C43.2852 28.2082 43.1836 27.9719 42.9805 27.8508C42.8164 27.7492 42.5215 27.6711 42.0957 27.6164V27.1828ZM44.1348 31.1613H45.5879C46.3145 31.1613 46.9199 31.0402 47.4043 30.798C48.0488 30.4777 48.3711 29.9797 48.3711 29.3039C48.3711 28.7063 48.1367 28.2961 47.668 28.0734C47.2617 27.8781 46.6914 27.7805 45.957 27.7805H45.0664C44.7227 27.7805 44.4844 27.841 44.3516 27.9621C44.207 28.091 44.1348 28.3234 44.1348 28.6594V31.1613ZM44.1348 31.759V34.8234C44.1348 35.1711 44.2109 35.4035 44.3633 35.5207C44.5195 35.6379 44.8438 35.6965 45.3359 35.6965H46.0156C46.875 35.6965 47.5449 35.5852 48.0254 35.3625C48.6699 35.0617 48.9922 34.5363 48.9922 33.7863C48.9922 32.966 48.6055 32.3996 47.832 32.0871C47.3008 31.8684 46.5527 31.759 45.5879 31.759H44.1348ZM50.9668 27.1828H54.4531V27.6164C53.8555 27.6711 53.4805 27.7668 53.3281 27.9035C53.1758 28.0402 53.0996 28.3078 53.0996 28.7063V34.6828C53.0996 35.1008 53.1875 35.3762 53.3633 35.509C53.5352 35.6379 53.8633 35.7023 54.3477 35.7023H54.9453C55.7695 35.7023 56.3906 35.4758 56.8086 35.0227C57.1406 34.6711 57.3652 34.0969 57.4824 33.3H57.8984L57.6934 36.3H50.9668V35.8664C51.4395 35.8234 51.7793 35.716 51.9863 35.5441C52.1621 35.3996 52.25 35.1438 52.25 34.7766V28.7063C52.25 28.2961 52.166 28.0207 51.998 27.8801C51.8457 27.7551 51.502 27.6672 50.9668 27.6164V27.1828ZM58.4316 27.1828H65.7852L65.9141 29.6848H65.498C65.4082 28.9348 65.1816 28.423 64.8184 28.1496C64.498 27.9035 63.9766 27.7805 63.2539 27.7805H61.4023C61.0625 27.7805 60.8281 27.841 60.6992 27.9621C60.5547 28.091 60.4824 28.3215 60.4824 28.6535V31.1613H62.0527C62.623 31.1613 63.0254 31.0559 63.2598 30.8449C63.4785 30.6496 63.5918 30.3078 63.5996 29.8195H64.0215V33.2473H63.5996C63.584 32.7004 63.4609 32.3117 63.2305 32.0813C63.0117 31.8664 62.6191 31.759 62.0527 31.759H60.4824V34.8234C60.4824 35.175 60.5586 35.4074 60.7109 35.5207C60.8672 35.6418 61.2031 35.7023 61.7188 35.7023H63.0957C63.9863 35.7023 64.6309 35.55 65.0293 35.2453C65.4395 34.9328 65.6797 34.3645 65.75 33.5402H66.166L65.9609 36.3H58.4316V35.8723C58.9277 35.8332 59.2461 35.7512 59.3867 35.6262C59.543 35.4895 59.6211 35.2551 59.6211 34.923V28.5598C59.6211 28.2082 59.5332 27.9719 59.3574 27.8508C59.1816 27.7336 58.873 27.6535 58.4316 27.6105V27.1828ZM71.7734 33.0012H72.1836C72.3164 33.9699 72.6094 34.6652 73.0625 35.0871C73.625 35.6145 74.3457 35.8781 75.2246 35.8781C75.9316 35.8781 76.502 35.718 76.9355 35.3977C77.3574 35.0852 77.5684 34.6691 77.5684 34.1496C77.5684 33.4035 76.9336 32.7727 75.6641 32.257L74.041 31.5949C73.3027 31.2941 72.7715 30.9582 72.4473 30.5871C72.1035 30.1965 71.9316 29.7199 71.9316 29.1574C71.9316 28.4621 72.2266 27.9055 72.8164 27.4875C73.3203 27.1281 73.9688 26.9484 74.7617 26.9484C75.6562 26.9484 76.3809 27.132 76.9355 27.4992C77.0332 27.5656 77.127 27.5988 77.2168 27.5988C77.373 27.5988 77.4707 27.4309 77.5098 27.0949H77.9316V29.8313H77.5098C77.377 29.132 77.1055 28.6008 76.6953 28.2375C76.2188 27.8117 75.6191 27.5988 74.8965 27.5988C74.2598 27.5988 73.7422 27.7473 73.3438 28.0441C72.9531 28.3371 72.7578 28.7082 72.7578 29.1574C72.7578 29.552 72.9355 29.882 73.291 30.1477C73.5449 30.3391 73.9238 30.5344 74.4277 30.7336L75.998 31.3547C76.8223 31.6828 77.4336 32.0539 77.832 32.468C78.2812 32.9367 78.5059 33.4895 78.5059 34.1262C78.5059 34.8684 78.2227 35.4543 77.6562 35.884C77.0938 36.3137 76.3105 36.5285 75.3066 36.5285C74.4199 36.5285 73.627 36.3195 72.9277 35.9016C72.8145 35.8391 72.7305 35.8078 72.6758 35.8078C72.4258 35.8078 72.2617 36.0207 72.1836 36.4465H71.7734V33.0012ZM79.4668 27.1828H83.4746C84.3418 27.1828 85.0938 27.3313 85.7305 27.6281C85.9102 27.7141 86.0684 27.8059 86.2051 27.9035C86.8418 28.3684 87.1602 28.9953 87.1602 29.7844C87.1602 30.4016 86.9668 30.927 86.5801 31.3605C86.252 31.7199 85.7754 31.9816 85.1504 32.1457C84.6387 32.2746 83.9512 32.3391 83.0879 32.3391H81.5176V34.9172C81.5176 35.2375 81.6172 35.468 81.8164 35.6086C81.9961 35.7375 82.3242 35.8234 82.8008 35.8664V36.3H79.4668V35.8664C80.0059 35.8039 80.3398 35.7141 80.4688 35.5969C80.6016 35.4797 80.668 35.2531 80.668 34.9172V28.5598C80.668 28.216 80.5762 27.9816 80.3926 27.8566C80.2207 27.7355 79.9121 27.6555 79.4668 27.6164V27.1828ZM81.5176 31.7414H82.9824C84.0723 31.7414 84.8691 31.5969 85.373 31.3078C85.8926 31.0109 86.1523 30.507 86.1523 29.7961C86.1523 28.4523 85.1992 27.7805 83.293 27.7805H82.4551C82.1074 27.7805 81.8672 27.841 81.7344 27.9621C81.5898 28.091 81.5176 28.3234 81.5176 28.6594V31.7414ZM87.8926 27.1828H95.2461L95.375 29.6848H94.959C94.8691 28.9348 94.6426 28.423 94.2793 28.1496C93.959 27.9035 93.4375 27.7805 92.7148 27.7805H90.8633C90.5234 27.7805 90.2891 27.841 90.1602 27.9621C90.0156 28.091 89.9434 28.3215 89.9434 28.6535V31.1613H91.5137C92.084 31.1613 92.4863 31.0559 92.7207 30.8449C92.9395 30.6496 93.0527 30.3078 93.0605 29.8195H93.4824V33.2473H93.0605C93.0449 32.7004 92.9219 32.3117 92.6914 32.0813C92.4727 31.8664 92.0801 31.759 91.5137 31.759H89.9434V34.8234C89.9434 35.175 90.0195 35.4074 90.1719 35.5207C90.3281 35.6418 90.6641 35.7023 91.1797 35.7023H92.5566C93.4473 35.7023 94.0918 35.55 94.4902 35.2453C94.9004 34.9328 95.1406 34.3645 95.2109 33.5402H95.627L95.4219 36.3H87.8926V35.8723C88.3887 35.8332 88.707 35.7512 88.8477 35.6262C89.0039 35.4895 89.082 35.2551 89.082 34.923V28.5598C89.082 28.2082 88.9941 27.9719 88.8184 27.8508C88.6426 27.7336 88.334 27.6535 87.8926 27.6105V27.1828ZM96.541 27.1828H103.895L104.023 29.6848H103.607C103.518 28.9348 103.291 28.423 102.928 28.1496C102.607 27.9035 102.086 27.7805 101.363 27.7805H99.5117C99.1719 27.7805 98.9375 27.841 98.8086 27.9621C98.6641 28.091 98.5918 28.3215 98.5918 28.6535V31.1613H100.162C100.732 31.1613 101.135 31.0559 101.369 30.8449C101.588 30.6496 101.701 30.3078 101.709 29.8195H102.131V33.2473H101.709C101.693 32.7004 101.57 32.3117 101.34 32.0813C101.121 31.8664 100.729 31.759 100.162 31.759H98.5918V34.8234C98.5918 35.175 98.668 35.4074 98.8203 35.5207C98.9766 35.6418 99.3125 35.7023 99.8281 35.7023H101.205C102.096 35.7023 102.74 35.55 103.139 35.2453C103.549 34.9328 103.789 34.3645 103.859 33.5402H104.275L104.07 36.3H96.541V35.8723C97.0371 35.8332 97.3555 35.7512 97.4961 35.6262C97.6523 35.4895 97.7305 35.2551 97.7305 34.923V28.5598C97.7305 28.2082 97.6426 27.9719 97.4668 27.8508C97.291 27.7336 96.9824 27.6535 96.541 27.6105V27.1828ZM105.225 27.1828H109.338C110.76 27.1828 111.871 27.6301 112.672 28.5246C113.426 29.3645 113.803 30.4328 113.803 31.7297C113.803 33.175 113.389 34.3078 112.561 35.1281C111.771 35.9094 110.682 36.3 109.291 36.3H105.225V35.8664C105.725 35.8078 106.045 35.7238 106.186 35.6145C106.338 35.4973 106.414 35.2668 106.414 34.923V28.5598C106.414 28.2082 106.334 27.9738 106.174 27.8566C106.006 27.7316 105.689 27.6516 105.225 27.6164V27.1828ZM107.275 28.6594V34.8234C107.275 35.1789 107.348 35.4113 107.492 35.5207C107.648 35.6418 107.971 35.7023 108.459 35.7023H109.145C110.387 35.7023 111.324 35.3293 111.957 34.5832C112.531 33.9113 112.818 32.9602 112.818 31.7297C112.818 30.382 112.482 29.3781 111.811 28.718C111.178 28.093 110.273 27.7805 109.098 27.7805H108.195C107.859 27.7805 107.625 27.841 107.492 27.9621C107.348 28.091 107.275 28.3234 107.275 28.6594Z" fill="white"/>
</svg>
